#!OML:ASF X:\für Bonn\!DataBase\2005_08_10_Bjorn_Final\c3d\bjorn.ASF
:FULLY-SPECIFIED
:DEGREES
152
root 0.0283068 19.6064 1.56147 -174.076 -4.78597 179.972
lowerback -7.68322 0.527722 0.991209
upperback 5.39255 0.543371 -1.0625
thorax 10.0966 0.316539 -1.61615
lowerneck -15.885 -3.5041 0.23222
upperneck 13.5965 -4.8411 -0.105025
head 6.74555 -2.34583 -0.572787
rclavicle -1.23246e-014 -3.97569e-016
rhumerus 71.2254 0.511688 -65.5949
rradius 11.8305
rwrist 38.4818
rhand -10.4007 10.651
rfingers 7.12502
rthumb 15.5978 -18.7401
lclavicle -1.23246e-014 -3.97569e-016
lhumerus 77.5645 -10.0639 44.3358
lradius 14.5255
lwrist -49.341
lhand -13.4257 -8.16926
lfingers 7.12502
lthumb 12.6828 21.4256
rfemur -18.9951 -13.6756 15.5081
rtibia 36.2878
rfoot -9.56603 11.3516
rtoes -25.0629
lfemur -16.2183 7.27105 -18.8432
ltibia 36.0275
lfoot -7.26359 -8.57382
ltoes -10.3688
153
root 0.0242964 19.6414 1.53146 -173.986 -4.87432 179.955
lowerback -8.21129 0.499511 0.933259
upperback 5.30522 0.523668 -1.07036
thorax 10.3141 0.309794 -1.5935
lowerneck -15.7918 -3.47292 0.258471
upperneck 13.7164 -4.7865 -0.253054
head 6.76405 -2.33269 -0.618955
rclavicle -4.72114e-015 1.11319e-014
rhumerus 71.2414 0.470195 -65.7176
rradius 11.8702
rwrist 38.5746
rhand -9.78558 10.5617
rfingers 7.12502
rthumb 16.1901 -18.7822
lclavicle -4.72114e-015 1.11319e-014
lhumerus 77.649 -10.1176 44.0004
lradius 14.4359
lwrist -49.3862
lhand -13.1674 -8.40123
lfingers 7.12502
lthumb 12.9319 21.1781
rfemur -18.5433 -13.7063 15.5027
rtibia 35.5283
rfoot -9.41474 11.1783
rtoes -25.0911
lfemur -15.6845 7.43755 -18.8385
ltibia 35.0428
lfoot -6.94653 -8.81581
ltoes -9.74157
154
root 0.0207303 19.6676 1.50326 -173.926 -4.94518 179.957
lowerback -8.68913 0.493477 0.931424
upperback 5.22245 0.529102 -1.11992
thorax 10.5091 0.319893 -1.64343
lowerneck -15.5782 -3.44833 0.339463
upperneck 13.6958 -4.76342 -0.317627
head 6.71755 -2.32546 -0.645812
rclavicle -8.29926e-015 0
rhumerus 71.2462 0.217288 -66.4091
rradius 11.9494
rwrist 39.6493
rhand -9.38082 10.5346
rfingers 7.12502
rthumb 16.5798 -18.7772
lclavicle -8.29926e-015 0
lhumerus 77.6928 -10.183 43.8569
lradius 14.4341
lwrist -49.7121
lhand -12.8458 -8.62115
lfingers 7.12502
lthumb 13.2418 20.9382
rfemur -18.1186 -13.6871 15.5118
rtibia 34.8669
rfoot -9.30931 11.0153
rtoes -24.8837
lfemur -15.1801 7.6796 -18.8145
ltibia 34.1686
lfoot -6.70588 -9.10823
ltoes -9.20974
155
root 0.0173087 19.6882 1.47626 -173.866 -5.01439 179.939
lowerback -9.13302 0.473837 0.893643
upperback 5.13013 0.519911 -1.15796
thorax 10.6719 0.319446 -1.66348
lowerneck -15.3641 -3.41991 0.361924
upperneck 13.657 -4.72948 -0.331505
head 6.66797 -2.31148 -0.645666
rclavicle 1.44119e-015 1.78906e-014
rhumerus 71.2333 0.083916 -66.8396
rradius 11.8835
rwrist 40.785
rhand -9.59472 10.4792
rfingers 7.12502
rthumb 16.3739 -18.8497
lclavicle 1.44119e-015 1.78906e-014
lhumerus 77.5723 -10.2031 44.0679
lradius 14.5445
lwrist -50.2726
lhand -12.5255 -8.88976
lfingers 7.12502
lthumb 13.5506 20.6493
rfemur -17.7545 -13.6916 15.5024
rtibia 34.3097
rfoot -9.25462 10.8636
rtoes -24.6829
lfemur -14.7308 7.94075 -18.8105
ltibia 33.3997
lfoot -6.534 -9.43175
ltoes -8.51244
156
root 0.0132329 19.7 1.45159 -173.827 -5.04383 179.943
lowerback -9.5389 0.476482 0.886012
upperback 5.04647 0.534949 -1.18791
thorax 10.8228 0.331864 -1.68768
lowerneck -15.1158 -3.40198 0.325591
upperneck 13.5637 -4.70622 -0.276997
head 6.59824 -2.29987 -0.613826
rclavicle -1.85864e-014 1.03368e-014
rhumerus 71.2297 -0.0128368 -67.0865
rradius 11.7863
rwrist 41.551
rhand -9.96414 10.383
rfingers 7.12502
rthumb 16.0182 -18.9748
lclavicle -1.85864e-014 1.03368e-014
lhumerus 77.3493 -10.1812 44.711
lradius 14.7668
lwrist -51.1874
lhand -12.0716 -9.19949
lfingers 7.12502
lthumb 13.988 20.3099
rfemur -17.424 -13.6515 15.5074
rtibia 33.8307
rfoot -9.25179 10.7331
rtoes -24.2005
lfemur -14.3281 8.20988 -18.7917
ltibia 32.7614
lfoot -6.48797 -9.72603
ltoes -7.71494
157
root 0.00993195 19.7035 1.42875 -173.822 -5.07253 179.946
lowerback -9.87407 0.485496 0.898718
upperback 4.964 0.556726 -1.24285
thorax 10.9336 0.349077 -1.74916
lowerneck -14.8888 -3.38869 0.306064
upperneck 13.4553 -4.70006 -0.173274
head 6.52815 -2.29121 -0.570956
rclavicle -2.93207e-015 1.78906e-014
rhumerus 71.2002 -0.197319 -67.59
rradius 11.715
rwrist 42.5251
rhand -10.3297 10.4005
rfingers 7.12502
rthumb 15.6661 -18.9853
lclavicle -2.93207e-015 1.78906e-014
lhumerus 77.1627 -10.2171 45.1337
lradius 14.9799
lwrist -51.5623
lhand -11.7283 -9.41384
lfingers 7.12502
lthumb 14.3188 20.0724
rfemur -17.1027 -13.5672 15.5128
rtibia 33.4184
rfoot -9.34495 10.5776
rtoes -23.889
lfemur -13.9624 8.51485 -18.7679
ltibia 32.255
lfoot -6.5474 -10.0791
ltoes -6.73652
158
root 0.00656365 19.6953 1.40982 -173.824 -5.07613 179.929
lowerback -10.1855 0.484074 0.856125
upperback 4.9067 0.5676 -1.26089
thorax 11.0565 0.354981 -1.74189
lowerneck -14.6862 -3.3653 0.227092
upperneck 13.2928 -4.66588 -0.0601365
head 6.44666 -2.27081 -0.512601
rclavicle 2.04748e-014 -8.34896e-015
rhumerus 71.2908 -0.310237 -67.9146
rradius 11.5873
rwrist 43.3057
rhand -10.7106 10.4431
rfingers 7.12502
rthumb 15.2993 -18.971
lclavicle 2.04748e-014 -8.34896e-015
lhumerus 77.0408 -10.2296 45.2948
lradius 15.1434
lwrist -51.2276
lhand -11.5157 -9.40511
lfingers 7.12502
lthumb 14.5236 20.0665
rfemur -16.8029 -13.4646 15.4941
rtibia 33.0424
rfoot -9.45743 10.4576
rtoes -23.1936
lfemur -13.6683 8.85187 -18.771
ltibia 31.8873
lfoot -6.74533 -10.4335
ltoes -5.81892
159
root 0.00362584 19.6757 1.39484 -173.867 -5.06202 179.907
lowerback -10.4016 0.504763 0.850634
upperback 4.84426 0.606703 -1.33256
thorax 11.1189 0.378212 -1.80813
lowerneck -14.5675 -3.34066 0.248687
upperneck 13.2614 -4.64992 0.0147466
head 6.418 -2.25714 -0.488029
rclavicle -5.01931e-015 7.95139e-016
rhumerus 71.4017 -0.320172 -67.7829
rradius 11.305
rwrist 42.9101
rhand -11.2888 10.4706
rfingers 7.12502
rthumb 14.7423 -18.9851
lclavicle -5.01931e-015 7.95139e-016
lhumerus 77.1213 -10.3614 44.7982
lradius 15.1692
lwrist -50.3064
lhand -11.7372 -9.02284
lfingers 7.12502
lthumb 14.3102 20.464
rfemur -16.4904 -13.3307 15.4679
rtibia 32.6964
rfoot -9.64707 10.3655
rtoes -22.3356
lfemur -13.3929 9.22542 -18.7744
ltibia 31.6334
lfoot -7.07972 -10.835
ltoes -4.75446
160
root 0.000367926 19.6478 1.38087 -173.898 -5.02356 179.937
lowerback -10.6108 0.526646 0.868177
upperback 4.77606 0.639496 -1.34885
thorax 11.1698 0.397996 -1.82835
lowerneck -14.5384 -3.3074 0.240669
upperneck 13.3512 -4.60743 0.0126498
head 6.44209 -2.23798 -0.484111
rclavicle -1.2921e-015 1.59028e-015
rhumerus 71.6148 -0.205885 -67.2149
rradius 10.9525
rwrist 42.0874
rhand -11.8087 10.4348
rfingers 7.12502
rthumb 14.2413 -19.0569
lclavicle -1.2921e-015 1.59028e-015
lhumerus 77.2674 -10.4724 44.0598
lradius 15.1069
lwrist -49.2091
lhand -12.2602 -8.42709
lfingers 7.12502
lthumb 13.8062 21.0948
rfemur -16.2101 -13.1213 15.5068
rtibia 32.366
rfoot -9.93997 10.25
rtoes -21.4792
lfemur -13.1906 9.64257 -18.7314
ltibia 31.4788
lfoot -7.54603 -11.2502
ltoes -3.87075
